<svg width="16" height="17" viewBox="0 0 16 17" fill="none" xmlns="http://www.w3.org/2000/svg">
<path d="M7.7627 1.56C7.83562 1.52067 7.91718 1.50008 8.00003 1.50008C8.08288 1.50008 8.16444 1.52067 8.23736 1.56L14.7374 5.06C14.8167 5.10284 14.883 5.16636 14.9293 5.24382C14.9755 5.32128 14.9999 5.4098 14.9999 5.5C14.9999 5.5902 14.9755 5.67872 14.9293 5.75618C14.883 5.83364 14.8167 5.89716 14.7374 5.94L8.23736 9.44C8.16444 9.47933 8.08288 9.49992 8.00003 9.49992C7.91718 9.49992 7.83562 9.47933 7.7627 9.44L1.2627 5.94C1.18332 5.89716 1.11701 5.83364 1.0708 5.75618C1.02458 5.67872 1.00018 5.5902 1.00018 5.5C1.00018 5.4098 1.02458 5.32128 1.0708 5.24382C1.11701 5.16636 1.18332 5.10284 1.2627 5.06L7.7627 1.56Z" fill="black"/>
<path d="M2.17664 7.568L7.28864 10.3207C7.50725 10.4384 7.75167 10.5001 7.99997 10.5001C8.24828 10.5001 8.4927 10.4384 8.71131 10.3207L13.8233 7.56733L14.7366 8.06C14.816 8.10284 14.8823 8.16636 14.9285 8.24382C14.9748 8.32128 14.9992 8.4098 14.9992 8.5C14.9992 8.5902 14.9748 8.67872 14.9285 8.75618C14.8823 8.83364 14.816 8.89716 14.7366 8.94L8.23664 12.44C8.16388 12.4791 8.08257 12.4996 7.99997 12.4996C7.91738 12.4996 7.83607 12.4791 7.76331 12.44L1.26331 8.94C1.18393 8.89716 1.11762 8.83364 1.07141 8.75618C1.02519 8.67872 1.00079 8.5902 1.00079 8.5C1.00079 8.4098 1.02519 8.32128 1.07141 8.24382C1.11762 8.16636 1.18393 8.10284 1.26331 8.06L2.17664 7.568Z" fill="black"/>
<path d="M7.28864 13.3207L2.17664 10.5673L1.26331 11.06C1.18393 11.1028 1.11762 11.1664 1.07141 11.2438C1.02519 11.3213 1.00079 11.4098 1.00079 11.5C1.00079 11.5902 1.02519 11.6787 1.07141 11.7562C1.11762 11.8336 1.18393 11.8972 1.26331 11.94L7.76331 15.44C7.91064 15.52 8.08931 15.52 8.23664 15.44L14.7366 11.94C14.816 11.8972 14.8823 11.8336 14.9285 11.7562C14.9748 11.6787 14.9992 11.5902 14.9992 11.5C14.9992 11.4098 14.9748 11.3213 14.9285 11.2438C14.8823 11.1664 14.816 11.1028 14.7366 11.06L13.8233 10.568L8.71131 13.3213C8.49264 13.439 8.24819 13.5005 7.99989 13.5004C7.75159 13.5003 7.50719 13.4385 7.28864 13.3207Z" fill="black"/>
</svg>
