<svg width="16" height="17" viewBox="0 0 16 17" fill="none" xmlns="http://www.w3.org/2000/svg">
<path d="M7.7627 1.55999C7.83562 1.52067 7.91718 1.50008 8.00003 1.50008C8.08288 1.50008 8.16444 1.52067 8.23736 1.55999L14.7374 5.05999C14.8167 5.10284 14.883 5.16635 14.9293 5.24381C14.9755 5.32127 14.9999 5.40979 14.9999 5.49999C14.9999 5.59019 14.9755 5.67871 14.9293 5.75617C14.883 5.83363 14.8167 5.89715 14.7374 5.93999L8.23736 9.43999C8.16444 9.47932 8.08288 9.49991 8.00003 9.49991C7.91718 9.49991 7.83562 9.47932 7.7627 9.43999L1.2627 5.93999C1.18332 5.89715 1.11701 5.83363 1.0708 5.75617C1.02458 5.67871 1.00018 5.59019 1.00018 5.49999C1.00018 5.40979 1.02458 5.32127 1.0708 5.24381C1.11701 5.16635 1.18332 5.10284 1.2627 5.05999L7.7627 1.55999Z" fill="black"/>
<path d="M2.17664 7.56799L7.28864 10.3207C7.50725 10.4384 7.75167 10.5 7.99997 10.5C8.24828 10.5 8.4927 10.4384 8.71131 10.3207L13.8233 7.56732L14.7366 8.05999C14.816 8.10283 14.8823 8.16635 14.9285 8.24381C14.9748 8.32127 14.9992 8.40979 14.9992 8.49999C14.9992 8.59019 14.9748 8.67871 14.9285 8.75617C14.8823 8.83363 14.816 8.89715 14.7366 8.93999L8.23664 12.44C8.16388 12.4791 8.08257 12.4995 7.99997 12.4995C7.91738 12.4995 7.83607 12.4791 7.76331 12.44L1.26331 8.93999C1.18393 8.89715 1.11762 8.83363 1.07141 8.75617C1.02519 8.67871 1.00079 8.59019 1.00079 8.49999C1.00079 8.40979 1.02519 8.32127 1.07141 8.24381C1.11762 8.16635 1.18393 8.10283 1.26331 8.05999L2.17664 7.56799Z" fill="black"/>
<path d="M7.28864 13.3207L2.17664 10.5673L1.26331 11.06C1.18393 11.1028 1.11762 11.1663 1.07141 11.2438C1.02519 11.3213 1.00079 11.4098 1.00079 11.5C1.00079 11.5902 1.02519 11.6787 1.07141 11.7562C1.11762 11.8336 1.18393 11.8971 1.26331 11.94L7.76331 15.44C7.91064 15.52 8.08931 15.52 8.23664 15.44L14.7366 11.94C14.816 11.8971 14.8823 11.8336 14.9285 11.7562C14.9748 11.6787 14.9992 11.5902 14.9992 11.5C14.9992 11.4098 14.9748 11.3213 14.9285 11.2438C14.8823 11.1663 14.816 11.1028 14.7366 11.06L13.8233 10.568L8.71131 13.3213C8.49264 13.439 8.24819 13.5005 7.99989 13.5004C7.75159 13.5003 7.50719 13.4385 7.28864 13.3207Z" fill="black"/>
</svg>
